<svg xmlns="http://www.w3.org/2000/svg" width="512" height="512" viewBox="0 0 512 512" version="1.1">
	<path d="M 246 5.150 C 243.525 5.589, 238.800 7.062, 235.500 8.422 C 225.032 12.736, 221.653 13.219, 207.080 12.480 C 191.149 11.673, 187.474 12.632, 176.506 20.458 C 167.241 27.070, 160.926 29.662, 149.728 31.450 C 144.353 32.308, 137.856 33.997, 135.291 35.203 C 132.634 36.452, 125.803 41.974, 119.425 48.029 C 109.623 57.334, 106.707 59.448, 96.081 64.958 C 81.785 72.371, 79.817 74.382, 71.679 89.895 C 64.107 104.329, 58.664 111.439, 49.051 119.458 C 33.050 132.803, 29.414 139.410, 27.013 159.500 C 25.504 172.124, 23.748 177.624, 16.430 192.641 C 8.566 208.778, 7.398 213.585, 8.894 223.647 C 10.651 235.460, 10.239 241.869, 6.902 254.642 C 2.845 270.170, 3.172 275.913, 8.832 288.500 C 14.127 300.273, 14.985 304.510, 14.834 318.140 C 14.679 332.085, 15.695 335.149, 24.368 346.893 C 33.665 359.484, 33.716 359.587, 36.939 372.261 C 38.568 378.667, 40.666 385.391, 41.602 387.204 C 42.537 389.017, 48.759 396.125, 55.428 403 C 66.284 414.192, 68.167 416.681, 73.415 426.787 C 81.626 442.597, 85.915 446.205, 105.399 453.688 C 118.973 458.902, 124.446 462.427, 135.604 473.146 C 141.171 478.494, 147.925 484.265, 150.613 485.971 C 157.790 490.525, 166.789 492.994, 176.355 493.035 C 188.462 493.087, 198.060 495.188, 212.081 500.856 C 227.826 507.222, 232.726 507.871, 244.137 505.098 C 255.011 502.456, 261.605 502.454, 273.261 505.088 C 287.290 508.258, 293.469 507.526, 305.154 501.308 C 317.894 494.528, 319.675 494.019, 334.046 493.049 C 349.247 492.022, 351.833 490.961, 365 480.341 C 375.491 471.878, 378.768 470.161, 391.430 466.492 C 404.744 462.634, 408.441 459.814, 421.460 443.590 C 430.597 432.204, 431.371 431.405, 441.004 423.436 C 450.064 415.940, 452.920 412.258, 462.979 395.105 C 466.977 388.288, 473.181 378.189, 476.766 372.664 C 484.895 360.139, 487.507 354.472, 489.481 345.089 C 491.107 337.360, 492.976 331.766, 500.036 313.500 C 505.277 299.941, 506.006 292.561, 503.488 278.574 C 501.504 267.555, 501.832 261.395, 505.080 248.710 C 508.150 236.720, 507.493 228.804, 502.571 218.500 C 497.020 206.879, 496.826 205.997, 496.073 189 C 495.292 171.354, 495.020 170.556, 485.514 158.071 C 478.098 148.331, 476.263 144.556, 473.483 133.331 C 469.522 117.335, 466.211 112.708, 451.596 102.742 C 442.099 96.266, 438.052 92.091, 431.493 82 C 424.591 71.382, 419.386 65.797, 410.516 59.488 C 398.480 50.929, 377.233 38.499, 366 33.446 C 359.675 30.601, 347.750 25.124, 339.500 21.275 C 331.250 17.427, 322.475 13.743, 320 13.088 C 317.096 12.320, 309.294 12.005, 298 12.199 L 280.500 12.500 269.500 8.872 C 256.980 4.742, 252.388 4.015, 246 5.150 M 245 7.542 C 241.975 8.281, 236.575 10.149, 233 11.693 C 226.630 14.444, 226.165 14.495, 209.795 14.240 C 190.574 13.941, 189.033 14.320, 177.135 22.285 C 166.771 29.224, 160.970 31.569, 149.500 33.455 C 144 34.359, 137.490 36.064, 135.032 37.244 C 132.575 38.424, 125.321 44.427, 118.913 50.583 C 108.958 60.148, 105.769 62.544, 97.010 67.043 C 91.372 69.940, 85.087 73.927, 83.044 75.905 C 81 77.882, 76.928 84, 73.994 89.500 C 65.727 104.997, 62.158 109.634, 49.069 121.876 C 33.446 136.488, 30.592 142.043, 28.538 161.837 C 27.596 170.918, 24.860 178.980, 17.745 193.635 L 11.500 206.500 11.495 226.500 C 11.491 245.461, 11.348 246.965, 8.745 255.457 C 4.893 268.026, 5.070 274.191, 9.595 285 C 16.415 301.291, 16.281 300.699, 16.515 315.557 C 16.776 332.152, 17.629 334.724, 26.989 347.146 C 34.923 357.675, 35.586 359.075, 39 372.500 C 40.595 378.774, 42.657 385.391, 43.580 387.204 C 44.504 389.017, 49.451 394.668, 54.574 399.763 C 66.988 412.110, 70.010 415.978, 74.935 425.826 C 79.558 435.071, 85.306 441.926, 91.442 445.513 C 93.674 446.818, 100.414 449.788, 106.421 452.113 C 119.500 457.176, 129.437 463.594, 137.331 472.077 C 144.623 479.914, 150.479 484.414, 157.661 487.702 C 162.249 489.803, 165.630 490.423, 176.380 491.139 C 193.164 492.257, 196.337 492.952, 211.759 498.883 C 228.410 505.287, 230.459 505.565, 242.472 503.056 C 254.923 500.456, 261.592 500.465, 272.671 503.098 C 286.409 506.362, 292.655 505.634, 304.729 499.360 C 317.723 492.607, 319.774 492.031, 334.171 491.095 C 348.435 490.167, 352.505 488.577, 362.500 480.023 C 372.119 471.792, 376.851 469.103, 387.490 465.822 C 405.094 460.392, 408.231 458.049, 421.572 440.376 C 427.284 432.809, 433.027 426.571, 438.459 422.035 C 449.388 412.906, 453.274 408.287, 460.906 395.355 C 464.429 389.385, 470.239 379.780, 473.816 374.012 C 481.587 361.482, 484.121 355.914, 486.473 346.198 C 488.311 338.606, 490.774 331.756, 498.048 314 C 503.071 301.739, 504.257 291.440, 501.881 280.708 C 499.919 271.842, 500.290 260.994, 502.939 249.773 C 506.129 236.262, 505.595 230.160, 500.174 218.203 C 494.875 206.515, 493.583 200.563, 494.394 191.569 C 495.062 184.156, 493.745 174.334, 491.505 170.020 C 490.785 168.634, 487.167 163.450, 483.465 158.500 C 475.693 148.107, 473.842 144.227, 471.057 132.504 C 469.945 127.821, 468.165 122.283, 467.102 120.199 C 464.908 115.899, 458.848 110.017, 451.500 105.054 C 441.104 98.033, 435.858 92.723, 429.331 82.613 C 425.741 77.051, 421.610 71.204, 420.152 69.620 C 416.428 65.575, 405.027 57.276, 395 51.312 C 383.777 44.636, 328.962 17.678, 322.193 15.505 C 318.258 14.242, 314.249 13.882, 306.693 14.113 C 285.228 14.771, 281.154 14.401, 269.500 10.735 C 255.612 6.365, 251.829 5.872, 245 7.542 M 244 44.090 L 232.500 48.095 218.500 47.513 C 201.222 46.794, 197.274 47.795, 186.337 55.666 C 175.419 63.523, 170.669 65.702, 159.411 68.018 C 147.663 70.436, 143.320 72.820, 135.460 81.169 C 121.132 96.388, 117.452 99.525, 108.101 104.500 C 97.096 110.354, 89.758 116.677, 85.304 124.143 C 83.546 127.089, 80.035 135.800, 77.500 143.500 C 72.187 159.642, 70.709 162.419, 60.966 174.568 C 57.026 179.481, 52.161 186.875, 50.154 191 C 46.510 198.491, 46.506 198.514, 46.926 209.500 C 47.688 229.418, 47.351 234.141, 44.430 244.563 C 40.586 258.278, 40.581 268.049, 44.411 277 C 49.133 288.033, 49.975 292.574, 49.988 307.072 C 50.003 323.833, 50.858 326.572, 59.830 338.584 C 68.094 349.649, 69.210 351.933, 72.460 364.445 C 76.234 378.967, 78.431 381.832, 93.707 392.140 C 104.567 399.468, 109.299 404.127, 115.599 413.694 C 122.802 424.631, 126.034 428.210, 133.562 433.582 C 142.400 439.888, 151.679 443.817, 164.447 446.657 C 177.032 449.457, 184.562 452.670, 196.946 460.520 C 211.881 469.988, 221.552 471.895, 237.500 468.517 C 246.881 466.530, 250.856 466.622, 263.633 469.118 C 279.535 472.225, 284.337 471.594, 298.457 464.543 L 309.833 458.862 323.723 458.050 C 340.804 457.052, 342.762 456.186, 355.603 443.953 C 365.647 434.385, 367.069 433.464, 378.741 428.971 C 388.844 425.083, 395.336 420.485, 401.500 412.855 C 414.176 397.163, 418.097 392.865, 426.500 385.446 C 431.450 381.076, 436.315 376.600, 437.311 375.500 C 440.371 372.120, 443.813 363.910, 445.904 355 C 448.656 343.276, 450.795 337.503, 457.808 322.862 C 465.936 305.895, 466.369 304.013, 465.537 289.254 C 464.864 277.309, 464.933 276.696, 468.361 264.254 C 470.294 257.239, 472.156 249.925, 472.500 248 C 473.401 242.952, 471.535 235.899, 466.283 224.500 L 461.675 214.500 461.070 200 C 460.356 182.891, 459.582 180.788, 449.468 168.500 C 441.937 159.351, 438.084 152.295, 435.544 143 C 431.937 129.802, 428.616 125.263, 413 112.186 C 407.225 107.350, 399.226 99.593, 395.224 94.947 C 386.710 85.063, 380.999 80.970, 367.426 75.024 C 361.967 72.632, 350.525 66.918, 342 62.325 C 333.475 57.732, 324.925 53.510, 323 52.943 C 321.075 52.375, 314.249 51.519, 307.831 51.040 C 298.386 50.335, 294.192 49.471, 285.831 46.505 C 263.349 38.531, 260.444 38.363, 244 44.090 M 343.130 180.044 C 329.176 183.818, 317.534 187.133, 317.257 187.410 C 316.663 188.004, 319.988 201.123, 321.040 202.331 C 321.437 202.789, 327.939 201.524, 335.488 199.521 C 343.037 197.518, 349.396 196.062, 349.619 196.285 C 349.842 196.509, 347.462 214.529, 344.330 236.330 C 341.197 258.131, 338.903 276.236, 339.231 276.564 C 339.910 277.243, 390.046 264.168, 391.357 262.969 C 392.230 262.172, 389.103 246.998, 388.067 247.003 C 387.755 247.004, 381.300 248.742, 373.723 250.864 C 366.146 252.985, 359.787 254.447, 359.594 254.111 C 359.321 253.638, 367.705 193.002, 370.359 176.250 C 370.701 174.095, 370.474 173.030, 369.687 173.090 C 369.034 173.140, 357.083 176.269, 343.130 180.044 M 296.500 192.528 C 295.950 192.732, 292.869 193.641, 289.652 194.548 C 284.547 195.989, 283.862 196.471, 284.257 198.349 C 284.804 200.952, 306.851 283.033, 307.427 284.615 C 307.709 285.388, 310.229 285.105, 315.667 283.688 C 319.975 282.566, 323.677 281.512, 323.894 281.347 C 324.111 281.181, 318.936 261.014, 312.394 236.532 C 300.438 191.787, 300.210 191.155, 296.500 192.528 M 256.500 203.218 C 252.650 204.310, 249.381 205.314, 249.236 205.449 C 249.091 205.584, 252.803 220.023, 257.486 237.535 C 262.169 255.048, 265.998 270.754, 265.996 272.438 C 265.984 282.487, 252.163 289.268, 243.399 283.526 C 239.980 281.286, 238.947 278.283, 229.850 244.150 C 225.357 227.293, 221.579 213.364, 221.454 213.197 C 221.160 212.804, 205.976 216.690, 205.347 217.319 C 204.378 218.289, 221.281 278.730, 224.428 285.546 C 230.038 297.697, 238.679 302.632, 252.873 301.791 C 265.947 301.017, 275.645 294.971, 280.610 284.500 C 284.206 276.915, 283.791 269.757, 278.611 250 C 267.532 207.748, 265.598 201.008, 264.585 201.116 C 263.988 201.180, 260.350 202.126, 256.500 203.218 M 142.112 231.517 C 114.745 239.199, 99.770 267.672, 108.994 294.483 C 111.922 302.994, 115.022 307.765, 121.859 314.285 C 138.503 330.158, 162.627 332.069, 182.140 319.059 L 187.781 315.298 192.730 319.073 L 197.680 322.847 207.974 320.101 L 218.269 317.354 213.884 313.832 C 211.473 311.895, 206.912 308.386, 203.750 306.035 C 200.588 303.683, 198 301.686, 198 301.595 C 198 301.505, 199.001 298.746, 200.225 295.465 C 203.356 287.074, 203.338 273.137, 200.185 263.891 C 195.575 250.374, 187.604 241.378, 174.469 234.870 C 166.800 231.069, 165.340 230.697, 156.804 230.366 C 150.534 230.123, 145.743 230.498, 142.112 231.517 M 147.748 247.491 C 136.361 249.764, 127.828 257.905, 124.373 269.789 C 120.157 284.292, 127.775 301.286, 141.526 308.052 C 148.460 311.464, 160.181 311.486, 167.750 308.102 C 170.637 306.810, 172.988 305.247, 172.974 304.627 C 172.960 304.007, 168.262 300.125, 162.534 296 C 156.807 291.875, 152.093 288.250, 152.060 287.945 C 152.027 287.639, 156.596 286.195, 162.213 284.735 L 172.426 282.082 177.790 286.131 C 180.740 288.358, 183.398 289.936, 183.697 289.636 C 185.155 288.178, 185.941 279.132, 185.035 274.233 C 181.508 255.151, 165.800 243.886, 147.748 247.491" stroke="none" fill="black" fill-rule="evenodd"/>
</svg>